<?xml version="1.0" encoding="UTF-8"?>
<svg xmlns="http://www.w3.org/2000/svg" viewBox="0 0 72.36 62.36">
    <style>
      .cls-1 {
        fill: #000;
        fill-rule: evenodd;
      }
    </style>
  <g>
    <g>
      <path class="cls-1" d="m63.76,17.47H8.6C3.84,17.47,0,13.61,0,8.87v-.28C0,3.84,3.85,0,8.6,0h55.17c4.75,0,8.6,3.85,8.6,8.6v.28c0,4.75-3.85,8.6-8.6,8.6Z"/>
      <path class="cls-1" d="m63.76,39.69H8.6c-4.75,0-8.6-3.85-8.6-8.6v-.28c0-4.75,3.85-8.6,8.6-8.6h55.17c4.75,0,8.6,3.85,8.6,8.6v.28c0,4.74-3.85,8.6-8.6,8.6Z"/>
      <path class="cls-1" d="m63.76,62.36H8.6c-4.75,0-8.6-3.85-8.6-8.6v-.28c0-4.75,3.85-8.6,8.6-8.6h55.17c4.75,0,8.6,3.85,8.6,8.6v.28c0,4.74-3.85,8.6-8.6,8.6Z"/>
    </g>
  </g>
</svg>