<?xml version="1.0" encoding="UTF-8"?>
<svg xmlns="http://www.w3.org/2000/svg" viewBox="0 0 27.09 27.08">
  <g>
    <g>
      <path d="m17.45.03c-.05.06-.08.13-.14.18-1.02,1.02-2.03,2.03-3.05,3.04-.09.09-.26.15-.39.15-2.88.01-5.76.01-8.65.01-1.15,0-1.84.7-1.84,1.84v16.63c0,1.13.7,1.83,1.83,1.83h16.66c1.13,0,1.82-.7,1.82-1.84v-8.65c0-.18.05-.31.18-.44,1-.99,1.99-1.98,2.98-2.97.06-.06.12-.11.23-.21v12.33c0,2.54-1.7,4.59-4.19,5.07-.31.06-.63.08-.95.08-5.6,0-11.19.01-16.79,0-2.64,0-4.73-1.82-5.11-4.43,0-.04-.03-.08-.04-.12V4.55s.04-.1.05-.15C.36,2.46,1.42,1.1,3.24.36c.42-.17.87-.24,1.31-.36,4.29.03,8.59.03,12.9.03Z"/>
      <path d="m24.06.03c.14.03.27.07.41.1,2.52.6,3.48,3.68,1.71,5.58-.82.87-1.69,1.7-2.53,2.55-.02.02-.05.04-.09.07-1.61-1.57-3.23-3.13-4.85-4.7.88-.88,1.74-1.73,2.6-2.59.42-.42.92-.71,1.49-.87.18-.05.36-.08.54-.13.22,0,.47,0,.72,0Z"/>
      <path d="m17.24,5.09c1.62,1.58,3.22,3.14,4.84,4.72-.07.08-.14.15-.2.21-3.34,3.34-6.69,6.67-10.04,10.01-.11.11-.27.2-.42.25-2.03.57-4.07,1.14-6.1,1.71-.07.02-.14.03-.23.05.02-.09.03-.16.05-.24.56-2.05,1.12-4.11,1.69-6.16.03-.12.1-.25.19-.34,3.37-3.36,6.74-6.72,10.11-10.09.02-.04.05-.07.11-.12Z"/>
    </g>
  </g>
</svg>