<?xml version="1.0" encoding="UTF-8"?>
<svg xmlns="http://www.w3.org/2000/svg" viewBox="0 0 24.12 25.15">
  <g>
    <path fill="#000" d="m24.04,11.07c.17,1.64.05,3.24-.36,4.79-.26,1-.79,1.81-1.59,2.43-.8.62-1.71.94-2.72.94-1.3,0-2.4-.51-3.3-1.52-1.18,1.02-2.51,1.52-4,1.52-1.78,0-3.29-.65-4.53-1.95-1.25-1.32-1.87-2.9-1.87-4.73s.62-3.42,1.87-4.73c1.25-1.3,2.76-1.95,4.53-1.95s3.26.65,4.51,1.95c1.26,1.32,1.9,2.9,1.9,4.73v2.01c0,.25.08.47.26.67.17.18.38.27.64.27.46,0,.74-.21.85-.62.29-1.09.37-2.21.23-3.37-.21-1.94-.97-3.64-2.31-5.08-1.32-1.44-2.89-2.31-4.74-2.59-2.85-.46-5.29.37-7.33,2.49-2.02,2.1-2.8,4.65-2.36,7.65.27,1.91,1.1,3.56,2.48,4.95,1.38,1.37,3,2.18,4.84,2.41,1.72.2,3.33-.1,4.82-.88.44-.23.9-.27,1.38-.11.46.16.8.47,1.02.94.22.46.26.94.1,1.42-.15.5-.45.87-.9,1.1-1.69.89-3.49,1.34-5.41,1.34-.48,0-.96-.03-1.43-.08-2.63-.32-4.93-1.47-6.89-3.45-1.98-1.98-3.18-4.33-3.59-7.06C-.15,12.53,0,10.57.6,8.68c.58-1.89,1.55-3.55,2.92-4.98,1.38-1.44,2.98-2.47,4.79-3.08C10.14,0,12.02-.16,13.95.16c2.61.41,4.87,1.65,6.76,3.72,1.92,2.02,3.02,4.43,3.33,7.19Zm-11.97,4.42c.77,0,1.43-.29,1.97-.86.56-.59.85-1.28.85-2.09s-.28-1.52-.85-2.09c-.55-.57-1.2-.86-1.97-.86s-1.45.29-2,.86-.82,1.27-.82,2.09.27,1.5.82,2.09c.55.57,1.22.86,2,.86Z"/>
  </g>
</svg>