<?xml version="1.0" encoding="UTF-8"?>
<svg xmlns="http://www.w3.org/2000/svg" viewBox="0 0 29.32 30.27">
    <style>
      .cls-1 {
        fill: #fff;
      }
    </style>
  <g>
    <g>
      <path class="cls-1" d="m0,4.63c.04-.31.07-.62.13-.92C.52,1.85,2.13.33,4,.08c.46-.06.92-.07,1.38-.07,3.57,0,7.15-.03,10.72,0,1.85.02,3.25.89,4.15,2.51.39.71.57,1.48.55,2.29-.01.43.02.87-.04,1.3-.13.91-.95,1.57-1.86,1.57s-1.73-.68-1.85-1.59c-.06-.42-.05-.85-.03-1.27.03-.54-.37-1.05-1.04-1.04-1.96,0-3.91,0-5.87,0h-5.23c-.34,0-.64.07-.87.34-.15.18-.23.38-.23.61,0,6.89,0,13.78-.01,20.67,0,.58.42,1.06,1.06,1.06,3.71,0,7.41,0,11.12,0,.35,0,.65-.1.87-.38.13-.17.19-.35.19-.56v-.94c.01-1.13.93-1.98,2.06-1.89.9.07,1.66.81,1.71,1.74.04.65.06,1.31-.07,1.97-.25,1.23-.87,2.22-1.88,2.95-.69.5-1.46.79-2.3.87-.03,0-.06.02-.09.03H4.4s-.06-.02-.09-.03c-.39-.08-.79-.12-1.15-.26-1.68-.63-2.7-1.84-3.06-3.6-.05-.25-.06-.51-.1-.77,0-7.01,0-13.99,0-20.98Z"/>
      <path class="cls-1" d="m29.31,15.14c-.01.1-.03.2-.04.3-.06.43-.27.78-.57,1.08-1.56,1.56-3.12,3.13-4.69,4.68-.52.52-1.16.68-1.86.47-.7-.21-1.15-.69-1.31-1.41-.14-.66.03-1.25.5-1.74.44-.45.89-.9,1.34-1.34.04-.04.09-.07.14-.11-.01,0-.01-.03-.02-.04-.04,0-.08,0-.11,0h-10.43c-.75,0-1.46-.49-1.73-1.19-.28-.74-.09-1.56.48-2.08.39-.35.85-.51,1.37-.51h10.46s-.05-.07-.08-.09c-.48-.48-.96-.96-1.44-1.44-.73-.74-.73-1.94-.01-2.67.76-.75,1.93-.76,2.69,0,1.59,1.58,3.17,3.17,4.75,4.75.31.31.5.69.54,1.14,0,.03.02.06.03.09-.01.04-.01.08-.01.12Z"/>
    </g>
  </g>
</svg>