<?xml version="1.0" encoding="UTF-8"?>
<svg xmlns="http://www.w3.org/2000/svg" viewBox="0 0 30.29 30.29">
    <style>
      .cls-1 {
        fill: #fff;
      }
    </style>
  <g>
    <g>
      <path class="cls-1" d="m30.29,15.16v10.6c0,2.68-1.85,4.53-4.52,4.53H4.52c-2.67,0-4.52-1.86-4.52-4.53V4.51C0,1.87,1.87,0,4.5,0h21.29c2.64,0,4.5,1.87,4.5,4.51,0,3.55,0,7.1,0,10.65Zm-28.18,3.63c0,2.31,0,4.63-.01,6.94.01.53.11,1.3.65,1.83.6.6,1.47.63,1.8.63,7.04,0,14.08-.02,21.12.02,1.45.01,2.55-1.03,2.54-2.55-.04-7.01-.04-14.02,0-21.04.01-1.48-1.03-2.57-2.54-2.55-3.51.05-7.01.02-10.52.02H4.37c-1.13,0-1.99.69-2.23,1.78-.07.32-.05.57-.05.64.05.76.04,4.69-.01,10.35.02,1.32.02,2.63.03,3.93Z"/>
      <path class="cls-1" d="m25.47,4.75v10.59c-1.35-1.3-2.63-2.55-3.95-3.82-1.87,1.89-3.71,3.75-5.57,5.62-.94-.99-1.85-1.94-2.77-2.91,1.77-1.76,3.63-3.61,5.54-5.51-1.28-1.33-2.53-2.62-3.84-3.97,3.57,0,7.05,0,10.59,0Z"/>
    </g>
  </g>
</svg>