<?xml version="1.0" encoding="UTF-8"?>
<svg xmlns="http://www.w3.org/2000/svg" viewBox="0 0 14.91 30.01">
  <g>
    <g>
      <path d="m8.42,29.65c-.44.33-.93.46-1.46.27-.22-.08-.44-.22-.62-.38-.52-.49-1.02-1-1.52-1.51-.26-.26-.37-.58-.37-.94v-8.41c0-1.4,0-2.81.01-4.21,0-.17-.06-.25-.2-.31-.82-.38-1.56-.87-2.18-1.53C.99,11.47.3,10.11.08,8.52c-.19-1.33-.03-2.62.46-3.86.32-.81.78-1.54,1.37-2.18.04-.04.06-.09.1-.13.1-.1.2-.2.3-.3.39-.3.76-.63,1.17-.9C4.47.51,5.56.14,6.73.03c1.55-.14,3.03.15,4.39.94,1.76,1.01,2.95,2.5,3.5,4.45.5,1.76.36,3.49-.41,5.17-.49,1.06-1.17,1.96-2.09,2.67-.47.36-1,.63-1.51.93-.12.07-.17.13-.17.26.01.72,0,1.44.01,2.16,0,.09.06.21.12.27.35.37.72.73,1.08,1.09.61.61.61,1.54,0,2.15-.34.34-.68.68-1.03,1.03.35.35.68.68,1.02,1.02.63.63.63,1.55,0,2.19-.36.36-.72.71-1.07,1.07-.07.07-.12.2-.12.3-.01.42-.01.84,0,1.26.01.35-.06.67-.28.95-.61.56-1.18,1.14-1.75,1.71Zm.52-16.47c.97-.24,1.84-.71,2.58-1.4.74-.7,1.27-1.54,1.59-2.52.31-.97.37-1.96.17-2.95-.57-2.84-2.94-4.81-5.86-4.82-2.72-.01-5.2,1.84-5.82,4.74-.3,1.38-.11,2.72.55,3.98.82,1.55,2.1,2.53,3.8,2.99-.01.1-.02.18-.02.27,0,4.26.01,8.52-.02,12.78,0,.57.12.98.56,1.34.34.27.63.61.95.94.49-.49.96-.96,1.43-1.44.05-.05.06-.15.06-.23.01-.43,0-.85,0-1.28s.16-.82.48-1.14c.28-.27.55-.55.82-.82.12-.12.24-.24.36-.36-.36-.36-.69-.69-1.03-1.03-.54-.54-.63-1.3-.19-1.91.25-.34.58-.62.87-.93.11-.11.22-.23.34-.34-.43-.43-.83-.83-1.23-1.23-.26-.27-.43-.6-.43-.97.03-1.22.04-2.43.04-3.67Z"/>
      <path d="m9.95,7.07c-.11.04-.26.13-.42.16-1.38.22-2.77.22-4.16.01-.43-.07-.6-.36-.73-.71-.34-.9-.28-1.79.12-2.65.12-.26.34-.39.62-.43,1.01-.16,2.03-.19,3.05-.13.38.02.77.08,1.15.14.25.04.44.19.55.42.46,1.01.46,2.01-.05,3.01-.04.04-.07.08-.13.18Zm-.48-2.87c-.06-.01-.1-.02-.15-.03-1.26-.18-2.51-.18-3.77,0-.06.01-.13.05-.16.1-.31.7-.31,1.41,0,2.11.03.07.14.13.22.14,1.22.18,2.45.17,3.68,0,.13-.02.19-.07.23-.18.17-.46.26-.92.16-1.41-.06-.25-.14-.49-.21-.73Z"/>
    </g>
  </g>
</svg>