<?xml version="1.0" encoding="UTF-8"?>
<svg xmlns="http://www.w3.org/2000/svg" viewBox="0 0 24.01 31.16">
  <g>
    <path d="m0,8.02C.08,4.36,1.83,1.56,4.85.37c1.65-.65,2.62-.47,3.82.84.52.56.97,1.2,1.35,1.86,1.31,2.25.99,4.19-.98,5.94-.6.53-1.25,1-1.87,1.51-.91.76-1.31,1.7-.97,2.88.98,3.46,2.83,6.4,5.46,8.83.93.86,2.05.85,3.2.34,1.07-.47,2.14-.97,3.26-1.25,1.54-.39,2.95.01,3.94,1.35.53.71,1.04,1.46,1.42,2.26,1.01,2.11.59,3.52-1.36,4.83-2.55,1.71-5.23,1.82-7.98.55-2.82-1.3-4.95-3.43-6.82-5.83C4.14,20.39,1.52,15.99.38,10.85c-.2-.93-.26-1.89-.38-2.83Z"/>
  </g>
</svg>