<?xml version="1.0" encoding="UTF-8"?>
<svg xmlns="http://www.w3.org/2000/svg" viewBox="0 0 29.5 26.47">
  <g>
    <path d="m29.5,2.17c-.11.58-.2,1.16-.32,1.73-.4,2.05-.8,4.1-1.2,6.15-.35,1.79-.7,3.58-1.05,5.37-.37,1.9-.74,3.79-1.11,5.69-.23,1.18-.41,2.38-.71,3.55-.23.89-.88,1.47-1.79,1.71-.68.19-1.35.07-1.98-.18-.22-.09-.41-.27-.6-.41-1.61-1.23-3.21-2.46-4.82-3.7-.14-.11-.23-.13-.38.01-1.01.93-2.04,1.83-3.03,2.77-.67.63-2.07.65-2.67-.4-.34-.6-.52-1.26-.72-1.91-.58-1.88-1.16-3.76-1.73-5.64-.05-.17-.15-.24-.3-.3-1.75-.59-3.5-1.18-5.25-1.78-.72-.25-1.32-.64-1.65-1.36-.37-.79-.2-1.7.47-2.25.31-.25.66-.47,1.02-.63,6.54-2.77,13.09-5.52,19.64-8.28,1.63-.69,3.26-1.37,4.9-2.05.53-.22,1.08-.34,1.66-.21.86.19,1.62.96,1.62,2.12Zm-2.29.15s-.04-.03-.06-.04C18.95,5.73,10.74,9.19,2.54,12.64c.07.08.13.11.19.14,2.05.69,4.1,1.38,6.15,2.07.21.07.37.05.57-.07,4.45-2.76,8.9-5.51,13.35-8.26.17-.1.37-.16.55-.23.15-.06.22.02.28.15.07.17,0,.29-.12.4-.7.66-1.39,1.32-2.09,1.97-2.9,2.71-5.8,5.42-8.71,8.12-.26.24-.38.49-.43.83-.2,1.34-.42,2.68-.63,4.02-.04.29-.08.57-.12.86.1-.02.16-.06.21-.11,1.2-1.1,2.41-2.19,3.61-3.29.24-.21.23-.21.49-.02,2.09,1.6,4.18,3.21,6.28,4.81.1.08.22.14.34.18.3.11.47,0,.53-.31.07-.35.14-.7.21-1.06.41-2.1.82-4.2,1.23-6.3.4-2.03.8-4.06,1.19-6.09.47-2.42.95-4.83,1.42-7.25.07-.29.12-.59.17-.88Z"/>
  </g>
</svg>