<?xml version="1.0" encoding="UTF-8"?>
<svg xmlns="http://www.w3.org/2000/svg" viewBox="0 0 29.64 30.02">
  <g>
    <g>
      <path d="m8.12,29.66c-.45.32-.94.45-1.46.25-.22-.08-.44-.23-.61-.39-.51-.5-1-1.02-1.5-1.53-.26-.26-.36-.59-.36-.95.04-2.8.08-5.6.12-8.41.02-1.4.04-2.81.06-4.21,0-.17-.06-.25-.2-.32-.82-.39-1.55-.9-2.16-1.56C.93,11.36.27,9.99.06,8.4c-.17-1.33,0-2.62.52-3.85.33-.8.8-1.53,1.4-2.16.04-.04.07-.09.1-.13.1-.1.2-.19.3-.29.39-.3.77-.62,1.18-.88C4.55.46,5.65.11,6.82.02c1.55-.12,3.02.2,4.37,1,1.75,1.04,2.91,2.54,3.44,4.49.48,1.77.31,3.5-.48,5.16-.5,1.05-1.2,1.95-2.13,2.64-.47.35-1.01.62-1.53.9-.12.07-.17.12-.17.26,0,.72-.02,1.44-.02,2.16,0,.09.05.21.12.28.35.37.71.74,1.07,1.1.6.62.59,1.55-.03,2.15-.34.33-.69.67-1.05,1.02.34.35.67.69,1,1.03.62.64.61,1.56-.03,2.19-.36.35-.73.7-1.08,1.06-.07.07-.12.19-.13.3-.02.42-.02.84-.02,1.26,0,.35-.07.67-.3.95-.57.57-1.15,1.13-1.73,1.69Zm.75-16.45c.98-.23,1.85-.68,2.6-1.36.75-.69,1.3-1.53,1.62-2.5.32-.96.4-1.95.22-2.95-.53-2.85-2.87-4.85-5.8-4.9-2.72-.05-5.22,1.77-5.88,4.65-.32,1.38-.15,2.72.5,3.99.79,1.56,2.06,2.56,3.76,3.05-.01.1-.02.18-.02.27-.06,4.26-.11,8.52-.2,12.78-.01.57.11.99.54,1.35.34.28.62.62.94.95.5-.48.98-.95,1.45-1.42.05-.05.07-.15.07-.23.01-.43.02-.85.02-1.28s.17-.82.5-1.13c.28-.27.56-.54.83-.81.12-.12.24-.23.37-.36-.35-.36-.69-.7-1.01-1.04-.53-.55-.61-1.31-.16-1.92.25-.34.59-.62.89-.92.11-.11.23-.22.35-.34-.42-.43-.82-.84-1.21-1.25-.26-.27-.42-.6-.42-.98-.01-1.21.02-2.42.04-3.65Z"/>
      <path d="m9.96,7.11c-.11.04-.26.13-.42.15-1.39.2-2.77.18-4.16-.05-.43-.07-.6-.37-.72-.72-.32-.91-.26-1.79.16-2.65.13-.26.34-.38.62-.42,1.02-.14,2.03-.16,3.06-.08.38.03.77.09,1.15.16.25.04.43.19.54.43.45,1.02.43,2.02-.09,3.01-.04.03-.08.07-.14.17Zm-.44-2.88c-.06-.01-.1-.03-.15-.03-1.25-.2-2.51-.22-3.77-.05-.06.01-.14.05-.16.1-.32.7-.33,1.4-.03,2.11.03.07.14.13.22.15,1.22.2,2.45.21,3.67.05.13-.02.19-.07.23-.17.17-.45.27-.92.18-1.4-.04-.27-.13-.51-.19-.76Z"/>
    </g>
    <g>
      <path d="m21.07.37c.44-.33.93-.47,1.46-.28.22.08.45.22.62.38.52.49,1.02,1,1.53,1.5.26.26.37.58.38.94.02,2.8.03,5.6.05,8.41.01,1.4.02,2.81.02,4.21,0,.17.06.25.2.31.82.37,1.57.87,2.19,1.52,1.1,1.15,1.79,2.51,2.03,4.1.2,1.33.05,2.62-.44,3.86-.32.81-.77,1.54-1.36,2.18-.04.04-.06.09-.1.13-.1.1-.2.2-.29.3-.39.3-.76.64-1.17.91-.98.65-2.07,1.03-3.24,1.14-1.55.15-3.03-.14-4.39-.91-1.77-1-2.96-2.48-3.52-4.43-.51-1.76-.38-3.49.38-5.17.48-1.06,1.16-1.97,2.08-2.68.47-.36,1-.64,1.51-.93.12-.07.17-.13.16-.26-.01-.72-.01-1.44-.02-2.16,0-.09-.06-.21-.13-.27-.36-.37-.73-.72-1.09-1.08-.61-.61-.62-1.54-.01-2.15.34-.34.67-.68,1.03-1.04-.35-.35-.69-.68-1.02-1.01-.64-.63-.64-1.55-.01-2.19.35-.36.71-.71,1.06-1.08.07-.07.12-.2.12-.3.01-.42.01-.84,0-1.26-.01-.35.06-.68.28-.96.55-.58,1.12-1.16,1.69-1.73Zm-.43,16.47c-.97.25-1.84.72-2.57,1.41-.74.7-1.27,1.55-1.57,2.53-.3.97-.36,1.96-.16,2.95.58,2.84,2.96,4.79,5.89,4.79,2.72,0,5.19-1.87,5.79-4.77.29-1.38.09-2.72-.57-3.97-.82-1.55-2.11-2.52-3.82-2.97.01-.1.02-.18.02-.27-.02-4.26-.06-8.52-.06-12.78,0-.57-.13-.98-.57-1.34-.34-.27-.63-.61-.95-.93-.49.49-.96.97-1.42,1.44-.05.05-.06.15-.06.23v1.28c0,.45-.16.83-.47,1.14-.27.27-.55.55-.82.83-.12.12-.23.24-.36.36.36.36.7.69,1.03,1.02.54.54.64,1.3.2,1.91-.24.34-.57.63-.87.94-.11.12-.22.23-.34.34.43.42.83.82,1.23,1.22.27.27.43.59.44.97,0,1.22,0,2.43,0,3.67Z"/>
      <path d="m19.67,22.95c.11-.04.26-.13.42-.16,1.38-.22,2.77-.23,4.16-.03.43.06.6.36.74.71.34.9.3,1.78-.1,2.65-.12.26-.33.39-.61.43-1.01.16-2.03.2-3.05.14-.38-.02-.77-.07-1.15-.13-.25-.04-.44-.19-.55-.42-.47-1.01-.47-2.01.03-3.01.02-.04.05-.08.11-.18Zm.5,2.87c.06.01.1.02.15.03,1.26.18,2.51.17,3.77-.02.06-.01.13-.05.16-.1.31-.7.31-1.41-.01-2.11-.03-.07-.14-.13-.22-.14-1.23-.18-2.45-.16-3.68.02-.13.02-.19.07-.23.18-.17.46-.25.93-.15,1.41.05.25.14.49.21.73Z"/>
    </g>
  </g>
</svg>