<?xml version="1.0" encoding="utf-8"?>
<!-- Generator: Adobe Illustrator 27.2.0, SVG Export Plug-In . SVG Version: 6.00 Build 0)  -->
<svg version="1.1" xmlns="http://www.w3.org/2000/svg" xmlns:xlink="http://www.w3.org/1999/xlink" x="0px" y="0px"
	 viewBox="0 0 80 80" style="enable-background:new 0 0 80 80;" xml:space="preserve">
<style type="text/css">
	.st0{fill-rule:evenodd;clip-rule:evenodd;}
</style>
<path class="st0" fill="#000" d="M61.37,19.71l-17.74-8.67c-2.22-1.09-4.81-1.09-7.03,0l-17.74,8.67c-2.22,1.09-3.83,3.14-4.38,5.58l-4.38,19.49
	c-0.55,2.44,0.03,5,1.56,6.96l12.28,15.63c1.53,1.95,3.87,3.1,6.33,3.1h19.69c2.47,0,4.8-1.14,6.33-3.1l12.28-15.63
	c1.53-1.95,2.11-4.52,1.56-6.96l-4.38-19.49C65.2,22.85,63.59,20.79,61.37,19.71z M46.5,4.97C42.46,3,37.76,3,33.72,4.97
	l-17.74,8.67c-4.03,1.97-6.97,5.71-7.96,10.15L3.63,43.27c-0.99,4.44,0.05,9.09,2.84,12.65l12.28,15.63
	c2.79,3.56,7.04,5.63,11.52,5.63h19.69c4.48,0,8.72-2.07,11.52-5.63l12.28-15.63c2.79-3.56,3.84-8.22,2.84-12.65l-4.38-19.49
	c-0.99-4.44-3.93-8.18-7.97-10.15L46.5,4.97z"/>
</svg>
