<?xml version="1.0" encoding="UTF-8"?>
<svg xmlns="http://www.w3.org/2000/svg" viewBox="0 0 420.55 810.39">
  <defs>
    <style>
      .cls-1 {
        fill: #fff;
        fill-rule: evenodd;
        isolation: isolate;
        opacity: .37;
      }
    </style>
  </defs>
  <g>
    <path class="cls-1" d="m308.19,736.39c-28.14,0-54.75-12.53-72.29-34.06l-140.08-171.83c-17.55-21.52-24.12-49.69-17.85-76.52l50-214.28c6.26-26.84,24.67-49.42,50.03-61.37l202.43-95.36c12.68-5.97,26.4-8.96,40.12-8.96V0c-24.95,0-49.89,5.43-72.94,16.29l-202.43,95.36c-46.1,21.71-79.57,62.78-90.96,111.57L4.22,437.5c-11.38,48.79.56,100,32.46,139.13l140.08,171.84c31.9,39.13,80.28,61.92,131.44,61.92h112.34v-74h-112.35Z"/>
  </g>
</svg>